<?xml version="1.0" encoding="UTF-8"?>
<svg width="100px" height="100px" viewBox="0 0 100 100" version="1.1" xmlns="http://www.w3.org/2000/svg" xmlns:xlink="http://www.w3.org/1999/xlink">
    <!-- Generator: Sketch 60 (88103) - https://sketch.com -->
    <title>编组 31</title>
    <desc>Created with Sketch.</desc>
    <defs>
        <circle id="path-1" cx="50" cy="50" r="50"></circle>
    </defs>
    <g id="页面-1" stroke="none" stroke-width="1" fill="none" fill-rule="evenodd">
        <g id="宣传长图2" transform="translate(-753.000000, -4421.000000)">
            <g id="编组-31" transform="translate(753.000000, 4421.000000)">
                <g id="路径-34备份">
                    <mask id="mask-2" fill="white">
                        <use xlink:href="#path-1"></use>
                    </mask>
                    <use id="蒙版" fill="#FFCB1B" xlink:href="#path-1"></use>
                    <path d="M67.8239178,34.29752 L104.858398,59.5918367 L104.858398,59.5918367 L94.6484375,89.9311523 L70.9183673,95.03125 C46.1615912,71.7421875 32.6461589,58.550293 30.3720703,55.4555664 C28.8898506,53.4384661 27.8429511,51.7028719 27.2313718,50.2487838 C27.0172442,49.7396941 27.2563661,49.1534139 27.7654587,48.9392931 C28.0096568,48.8365851 28.2846312,48.834972 28.5300175,48.9348081 L67.940918,64.9692383 L67.940918,64.9692383 L66.2615038,35.1795816 C66.2304177,34.6281724 66.6522229,34.1559667 67.2036321,34.1248806 C67.4237725,34.11247 67.6418427,34.1731638 67.8239178,34.29752 Z" fill="#F2BA18" mask="url(#mask-2)"></path>
                </g>
                <g id="guanzhuxuanzhong" transform="translate(25.000000, 30.000000)" fill="#FFFFFF" fill-rule="nonzero">
                    <path d="M49.0977415,22.7874458 C52.8171699,29.1266045 44.1055049,36.2019236 39.8769532,39.146565 C38.6053295,40.0123695 36.9058829,40.0123695 35.6342592,39.146565 C31.3915653,36.2155561 22.6940426,29.1402371 26.413471,22.7874458 C27.4648445,20.9535786 29.3588841,19.7115352 31.514499,19.4423742 C33.670114,19.1732132 35.8299377,19.9090707 37.3313368,21.4241859 C37.4488972,21.5442662 37.612607,21.6123248 37.7838909,21.6123248 C37.9551747,21.6123248 38.1188845,21.5442662 38.2364449,21.4241859 C39.7378441,19.9090707 41.8976678,19.1732132 44.0532827,19.4423742 C46.2088977,19.7115352 48.1029373,20.9535786 49.1543107,22.7874458 L49.0977415,22.7874458 Z" id="路径"></path>
                    <path d="M44.83013,7.54415085 C43.1121302,3.68972592 39.5474372,0.932423339 35.3291176,0.195084288 C31.110798,-0.542254764 26.796153,0.837782899 23.8292505,3.87331268 C23.6071382,4.10370202 23.2982902,4.23421714 22.9752147,4.23421714 C22.6521392,4.23421714 22.3432913,4.10370202 22.1211789,3.87331268 C19.1542764,0.837782899 14.8396314,-0.542254764 10.6213118,0.195084288 C6.4029922,0.932423339 2.83829923,3.68972592 1.12029943,7.54415085 C-5.09596091,21.10013 16.3389368,36.0172064 21.7291625,39.4405724 C22.4593606,39.914367 23.4070653,39.914367 24.1372634,39.4405724 C29.5134885,36.0172064 50.9483862,21.10013 44.83013,7.54415085 L44.83013,7.54415085 Z M19.2230576,9.38644412 C19.0615327,9.91274122 18.6927294,10.3539372 18.1985327,10.6120739 C17.7043361,10.8702106 17.1256456,10.9239246 16.5909474,10.7612899 C15.1648108,10.3273927 13.6113122,10.669541 12.5104891,11.6599851 C11.409666,12.6504292 10.9270064,14.1402745 11.2427234,15.57325 C11.4389962,16.307286 11.2088563,17.0878669 10.6435844,17.6053893 C10.0783125,18.1229117 9.26926264,18.2937385 8.53732988,18.0501143 C7.80539713,17.80649 7.26886975,17.1877871 7.1405516,16.4394029 C6.50911768,13.5734518 7.47443685,10.5937612 9.67608302,8.612873 C11.8777292,6.63198483 14.9847264,5.94768826 17.8369995,6.81548258 C18.94068,7.15199537 19.560096,8.3009334 19.2230576,9.38644412 L19.2230576,9.38644412 Z" id="形状"></path>
                </g>
            </g>
        </g>
    </g>
</svg>