<?xml version="1.0" encoding="UTF-8"?>
<svg width="100px" height="100px" viewBox="0 0 100 100" version="1.1" xmlns="http://www.w3.org/2000/svg" xmlns:xlink="http://www.w3.org/1999/xlink">
    <!-- Generator: Sketch 60 (88103) - https://sketch.com -->
    <title>编组 30</title>
    <desc>Created with Sketch.</desc>
    <defs>
        <circle id="path-1" cx="50" cy="50" r="50"></circle>
    </defs>
    <g id="页面-1" stroke="none" stroke-width="1" fill="none" fill-rule="evenodd">
        <g id="宣传长图2" transform="translate(-444.000000, -4421.000000)">
            <g id="编组-30" transform="translate(444.000000, 4421.000000)">
                <g id="路径-34">
                    <mask id="mask-2" fill="white">
                        <use xlink:href="#path-1"></use>
                    </mask>
                    <use id="蒙版" fill="#1AA696" xlink:href="#path-1"></use>
                    <path d="M69.5438656,31.2114775 L103.07959,56.5571429 L103.07959,56.5571429 L94.6484375,92.9311523 L65.7832031,100.999512 L31.8793959,69.7040456 C31.4735731,69.3294441 31.4482631,68.6967852 31.8228646,68.2909623 C32.0121714,68.0858776 32.2785719,67.9692383 32.5576719,67.9692383 L67.940918,67.9692383 L67.940918,67.9692383 L67.940918,32.0092582 C67.940918,31.4569735 68.3886332,31.0092582 68.940918,31.0092582 C69.1585506,31.0092582 69.3702424,31.0802564 69.5438656,31.2114775 Z" fill="#158E80" mask="url(#mask-2)"></path>
                </g>
                <g id="baobiao" transform="translate(30.000000, 30.000000)" fill="#FFFFFF" fill-rule="nonzero">
                    <path d="M0,4.54416667 C0,2.03405558 2.03405558,0 4.54416667,0 L36.4558333,0 C38.9659444,0 41,2.03405558 41,4.54416667 L41,36.4558333 C41,38.9655073 38.9655073,41 36.4558333,41 L4.54416667,41 C3.33897873,41 2.18315216,40.521241 1.3309556,39.6690444 C0.478759042,38.8168478 0,37.6610213 0,36.4558333 L0,4.54416667 Z M4.55555558,12.6666667 L4.55555558,36.4444444 L36.4444444,36.4444444 L36.4444444,12.6666667 L4.55555558,12.6666667 Z" id="形状"></path>
                    <path d="M7,16 L34,16 L34,20 L7,20 L7,16 Z M7,22.5571429 L34,22.5571429 L34,26.5571429 L7,26.5571429 L7,22.5571429 Z M7,29.1142857 L34,29.1142857 L34,33.1142857 L7,33.1142857 L7,29.1142857 Z" id="形状"></path>
                </g>
            </g>
        </g>
    </g>
</svg>