<?xml version="1.0" encoding="UTF-8"?>
<svg width="100px" height="100px" viewBox="0 0 100 100" version="1.1" xmlns="http://www.w3.org/2000/svg" xmlns:xlink="http://www.w3.org/1999/xlink">
    <!-- Generator: Sketch 60 (88103) - https://sketch.com -->
    <title>编组 33</title>
    <desc>Created with Sketch.</desc>
    <defs>
        <circle id="path-1" cx="50" cy="50" r="50"></circle>
    </defs>
    <g id="页面-1" stroke="none" stroke-width="1" fill="none" fill-rule="evenodd">
        <g id="宣传长图2" transform="translate(-1373.000000, -4421.000000)">
            <g id="编组-33" transform="translate(1373.000000, 4421.000000)">
                <g id="路径-2">
                    <g>
                        <mask id="mask-2" fill="white">
                            <use xlink:href="#path-1"></use>
                        </mask>
                        <use id="蒙版" fill="#EA3447" xlink:href="#path-1"></use>
                        <polygon fill="#CF2738" mask="url(#mask-2)" points="69.050293 31 115 58.7431641 91.2495117 98 50 69.1818182 63.9935641 50.7813834"></polygon>
                    </g>
                </g>
                <g id="yijianfankui" transform="translate(29.000000, 31.000000)" fill="#FFFFFF" fill-rule="nonzero">
                    <path d="M39.2000028,0 L2.79999719,0 C1.25357473,0 0,1.22099184 0,2.72734111 L0,31.3635486 C0,32.869898 1.25361669,34.0908898 2.79999719,34.0908898 L16.7333716,34.0908898 L21,38.1818182 L25.1955676,34.0908898 L39.2000028,34.0908898 C40.7464252,34.0908898 42,32.8698979 42,31.3635486 L42,2.72734115 C42,1.22099184 40.7463833,0 39.2000028,0 Z M10.4978174,19.7813834 C8.94967399,19.7813834 7.69454626,18.5586429 7.69454626,17.050212 C7.69454626,15.5419059 8.94967399,14.3191654 10.4978174,14.3191654 C12.0459608,14.3191654 13.3010885,15.5419059 13.3010885,17.050212 C13.3010885,18.5586429 12.0460027,19.7813834 10.4978174,19.7813834 Z M21.0034837,19.7813834 C19.4553404,19.7813834 18.2002126,18.5586429 18.2002126,17.050212 C18.2002126,15.5419059 19.4553404,14.3191654 21.0034837,14.3191654 C22.5516271,14.3191654 23.8067549,15.5419059 23.8067549,17.050212 C23.8067549,18.5586429 22.5516271,19.7813834 21.0034837,19.7813834 Z M32.190293,19.7813834 C30.6421496,19.7813834 29.3870218,18.5586429 29.3870218,17.050212 C29.3870218,15.5419059 30.6421496,14.3191654 32.190293,14.3191654 C33.7384363,14.3191654 34.9935641,15.5419059 34.9935641,17.050212 C34.9935641,18.5586429 33.7384783,19.7813834 32.190293,19.7813834 Z" id="形状"></path>
                </g>
            </g>
        </g>
    </g>
</svg>