<?xml version="1.0" encoding="UTF-8"?>
<svg width="14px" height="14px" viewBox="0 0 14 14" version="1.1" xmlns="http://www.w3.org/2000/svg" xmlns:xlink="http://www.w3.org/1999/xlink">
    <!-- Generator: Sketch 60 (88103) - https://sketch.com -->
    <title>形状</title>
    <desc>Created with Sketch.</desc>
    <g id="页面-1" stroke="none" stroke-width="1" fill="none" fill-rule="evenodd">
        <g id="03OKR他人看板已关注" transform="translate(-847.000000, -20.000000)" fill="#DFDFDF" fill-rule="nonzero">
            <g id="编组-4" transform="translate(847.000000, 11.000000)">
                <g id="编组-8">
                    <g id="左向1" transform="translate(0.000000, 9.000000)">
                        <path d="M7.00276584,0 C4.17593581,0 1.62745366,1.70450425 0.545672642,4.31870509 C-0.53610838,6.93290594 0.061849971,9.94198128 2.06072065,11.942804 C4.05959133,13.9436267 7.06573099,14.542169 9.6773814,13.4593315 C12.2890318,12.3764941 13.9918731,9.82552321 13.9918731,6.9959326 C13.9918731,3.13218572 10.8627432,0 7.00276584,0 Z M8.46560224,9.7292272 C8.71768054,9.9830575 8.71768054,10.3930029 8.46560224,10.6468332 C8.34481467,10.7685225 8.18024343,10.8365257 8.00887221,10.8355709 C7.83559287,10.8356982 7.66942797,10.7665904 7.54726605,10.6435793 L4.38753941,7.47100523 C4.15556967,7.2148885 4.16413512,6.82192227 4.4070439,6.57617665 L7.61553176,3.35479372 C7.77560157,3.17267636 8.02357463,3.09478436 8.25889637,3.15270341 C8.49421811,3.21062245 8.67782954,3.39473905 8.73527512,3.63039283 C8.79272069,3.86604662 8.71446553,4.11412346 8.53224257,4.27402672 L5.77885937,6.9959326 L8.46560224,9.7292272 Z" id="形状"></path>
                    </g>
                </g>
            </g>
        </g>
    </g>
</svg>