<?xml version="1.0" encoding="UTF-8"?>
<svg width="36px" height="36px" viewBox="0 0 36 36" version="1.1" xmlns="http://www.w3.org/2000/svg" xmlns:xlink="http://www.w3.org/1999/xlink">
    <!-- Generator: Sketch 60 (88103) - https://sketch.com -->
    <title>loading</title>
    <desc>Created with Sketch.</desc>
    <g id="页面-1" stroke="none" stroke-width="1" fill="none" fill-rule="evenodd">
        <g id="loading" fill="#DFDFDF" fill-rule="nonzero">
            <path d="M19.8,28.8 C21.7882251,28.8 23.4,30.4117749 23.4,32.4 C23.4,34.3882251 21.7882251,36 19.8,36 C17.8117749,36 16.2,34.3882251 16.2,32.4 C16.2,30.4117749 17.8117749,28.8 19.8,28.8 Z M8.5338,23.4 C11.0190814,23.4 13.0338,25.4147186 13.0338,27.9 C13.0338,30.3852814 11.0190814,32.4 8.5338,32.4 C6.04851863,32.4 4.0338,30.3852814 4.0338,27.9 C4.0338,25.4147186 6.04851863,23.4 8.5338,23.4 Z M29.3742,24.3 C31.3624251,24.3 32.9742,25.9117749 32.9742,27.9 C32.9742,29.8882251 31.3624251,31.5 29.3742,31.5 C27.3859749,31.5 25.7742,29.8882251 25.7742,27.9 C25.7742,25.9117749 27.3859749,24.3 29.3742,24.3 Z M33.3,16.7742 C34.7911688,16.7742 36,17.9830312 36,19.4742 C36,20.9653688 34.7911688,22.1742 33.3,22.1742 C31.8088312,22.1742 30.6,20.9653688 30.6,19.4742 C30.6,17.9830312 31.8088312,16.7742 33.3,16.7742 L33.3,16.7742 Z M4.5,10.8 C6.98528137,10.8 9,12.8147186 9,15.3 C9,17.7852814 6.98528137,19.8 4.5,19.8 C2.01471863,19.8 0,17.7852814 0,15.3 C0,12.8147186 2.01471863,10.8 4.5,10.8 L4.5,10.8 Z M32.0148,9.3726 C33.0089125,9.3726 33.8148,10.1784875 33.8148,11.1726 C33.8148,12.1667125 33.0089125,12.9726 32.0148,12.9726 C31.0206875,12.9726 30.2148,12.1667125 30.2148,11.1726 C30.2148,10.1784875 31.0206875,9.3726 32.0148,9.3726 L32.0148,9.3726 Z M14.4,0 C17.3823376,0 19.8,2.41766235 19.8,5.4 C19.8,8.38233765 17.3823376,10.8 14.4,10.8 C11.4176624,10.8 9,8.38233765 9,5.4 C9,2.41766235 11.4176624,0 14.4,0 Z M27.9,5.4 C28.3970563,5.4 28.8,5.80294373 28.8,6.3 C28.8,6.79705627 28.3970563,7.2 27.9,7.2 C27.4029437,7.2 27,6.79705626 27,6.3 C27,5.80294374 27.4029437,5.4 27.9,5.4 L27.9,5.4 Z" id="形状"></path>
        </g>
    </g>
</svg>