<?xml version="1.0" encoding="UTF-8"?>
<svg width="114px" height="39px" viewBox="0 0 114 39" version="1.1" xmlns="http://www.w3.org/2000/svg" xmlns:xlink="http://www.w3.org/1999/xlink">
    <!-- Generator: Sketch 60 (88103) - https://sketch.com -->
    <title>编组</title>
    <desc>Created with Sketch.</desc>
    <defs>
        <path d="M15.6791561,0.203525581 C6.38899756,1.46386047 1.20123659,7.13536744 0.117226829,17.2196791 L0.117226829,17.2196791 C-0.046295122,18.7425837 -0.0400682927,20.2774605 0.145382927,21.7979163 L0.145382927,21.7979163 C1.2978878,31.2321977 6.24090732,36.7371837 14.9763366,38.3164116 L14.9763366,38.3164116 C16.1567268,38.5297326 17.3503829,38.6372093 18.544039,38.6372093 L18.544039,38.6372093 L18.5481,38.6372093 C19.7493366,38.6372093 20.9505732,38.5283721 22.1377317,38.3101535 L22.1377317,38.3101535 C30.543139,36.7638488 35.3997951,31.5026581 36.7044512,22.5227721 L36.7044512,22.5227721 C36.9935927,20.5318674 36.9838463,18.512393 36.6882073,16.5228488 L36.6882073,16.5228488 C35.2841927,7.08094884 30.1895634,1.66031163 21.4021537,0.263113953 L21.4021537,0.263113953 C20.3901585,0.102306977 19.3695,0.0225837209 18.3483,0.0225837209 L18.3483,0.0225837209 C17.4570512,0.0225837209 16.5655317,0.0832604651 15.6791561,0.203525581 M8.74355122,19.5156 C9.08196585,11.6929256 12.2969049,7.61153023 18.3883683,7.27141395 L18.3883683,7.27141395 C24.3661244,7.61153023 27.4673561,11.6929256 27.6947707,19.5156 L27.6947707,19.5156 C27.4673561,27.3382744 24.3106244,31.3638907 18.219161,31.5897279 L18.219161,31.5897279 C12.1276976,31.2496116 8.96825854,27.2267163 8.74355122,19.5156" id="path-1"></path>
        <linearGradient x1="50.0000052%" y1="-1.59952648e-05%" x2="50.0000052%" y2="100%" id="linearGradient-3">
            <stop stop-color="#1AA595" offset="0%"></stop>
            <stop stop-color="#0D978C" offset="100%"></stop>
        </linearGradient>
        <radialGradient cx="44.0273822%" cy="85.7114545%" fx="44.0273822%" fy="85.7114545%" r="101.606229%" gradientTransform="translate(0.440274,0.857115),scale(0.783784,1.000000),rotate(-150.246068),translate(-0.440274,-0.857115)" id="radialGradient-4">
            <stop stop-color="#1AB7A0" offset="0%"></stop>
            <stop stop-color="#12CAB1" offset="100%"></stop>
        </radialGradient>
        <path d="M1.92915,0.26433 C0.99333,0.26433 0.23436,1.02303 0.23436,1.95912 L0.23436,1.95912 L0.23436,26.30502 L8.67213,17.13069 L8.67213,4.17231 C8.67213,2.01393 6.92253,0.26433 4.76415,0.26433 L4.76415,0.26433 L1.92915,0.26433 Z" id="path-5"></path>
        <linearGradient x1="0.000817893827%" y1="50.0001339%" x2="419.988941%" y2="50.0001339%" id="linearGradient-7">
            <stop stop-color="#1AA595" offset="0%"></stop>
            <stop stop-color="#0D978C" offset="100%"></stop>
        </linearGradient>
        <path d="M5.692776,15.9646143 L0.264408,21.6239 L9.867276,35.3467857 C10.730052,36.5793429 12.154212,37.3157286 13.675248,37.3157286 L13.675248,37.3157286 L22.112568,37.3157286 L5.725068,15.9407286 L20.905344,0.163942857 L5.692776,15.9646143 Z" id="path-8"></path>
        <linearGradient x1="-65.8031324%" y1="49.999975%" x2="100.000921%" y2="49.999975%" id="linearGradient-10">
            <stop stop-color="#1AA595" offset="0%"></stop>
            <stop stop-color="#0D978C" offset="100%"></stop>
        </linearGradient>
        <polygon id="path-11" points="0.236727273 10.2137538 0.236727273 11.1057231 8.75972727 11.1057231 8.75972727 1.06726154 9.61063636 0.124615385"></polygon>
        <linearGradient x1="0.00074365017%" y1="49.9996981%" x2="381.864781%" y2="49.9996981%" id="linearGradient-13">
            <stop stop-color="#1AA595" offset="0%"></stop>
            <stop stop-color="#0D978C" offset="100%"></stop>
        </linearGradient>
        <linearGradient x1="69.7198897%" y1="13.9316018%" x2="7.49746156%" y2="84.7903642%" id="linearGradient-14">
            <stop stop-color="#1ACAB1" offset="0%"></stop>
            <stop stop-color="#1AB7A0" offset="100%"></stop>
        </linearGradient>
        <path d="M0.198227586,2.48787692 L0.198227586,23.4947077 C0.198227586,23.4947077 0.575048276,20.6889231 1.69448276,19.1190462 L1.69448276,19.1190462 C2.60224138,17.8468615 3.93066207,17.0504308 7.10768276,16.9814769 L7.10768276,16.9814769 C7.60688276,16.9704 8.44175172,16.9742769 9.48587586,16.9778769 L9.48587586,16.9778769 C10.9033241,16.9825846 12.7067379,16.9872923 14.5787379,16.9554462 L14.5787379,16.9554462 L8.60313103,16.9554462 L8.60313103,6.74418462 L15.8315793,6.74418462 C20.4255103,6.63064615 22.6111241,8.36141538 22.3876138,11.9364923 L22.3876138,11.9364923 C22.4841724,14.8621846 20.8268069,16.5071077 17.4165931,16.8754154 L17.4165931,16.8754154 C18.7302207,16.8211385 19.9992,16.7397231 21.1105655,16.6178769 L21.1105655,16.6178769 C22.6910069,16.4448 25.7424207,14.4022154 25.6832483,10.9755692 L25.6832483,10.9755692 C25.6493586,9.03710769 24.9097034,7.06403077 23.7666,5.85249231 L23.7666,5.85249231 C19.422269,1.24809231 6.91241379,0.261415385 2.10895862,0.0509538462 L2.10895862,0.0509538462 C1.01695862,0.292707692 0.198227586,1.29129231 0.198227586,2.48787692" id="path-15"></path>
        <linearGradient x1="-0.00054804407%" y1="49.9998474%" x2="129.280019%" y2="49.9998474%" id="linearGradient-17">
            <stop stop-color="#1AA595" offset="0%"></stop>
            <stop stop-color="#0D978C" offset="100%"></stop>
        </linearGradient>
        <polygon id="path-18" points="0.19899 0.222882353 0.19899 14.3216471 8.63622 14.3216471 8.63622 0.123617647"></polygon>
        <linearGradient x1="-0.00166181318%" y1="50.0002588%" x2="392.010883%" y2="50.0002588%" id="linearGradient-20">
            <stop stop-color="#1AA595" offset="0%"></stop>
            <stop stop-color="#0D978C" offset="100%"></stop>
        </linearGradient>
        <path d="M0.037526087,0.307588235 L0.538786957,0.298588235 L8.32805217,12.1468235 C9.25908261,13.563 10.8746217,14.4209118 12.6109565,14.4209118 L12.6109565,14.4209118 L20.6081217,14.4209118 L9.61845652,0.0423529412 L0.037526087,0.307588235 Z" id="path-21"></path>
        <linearGradient x1="-63.1173775%" y1="49.9994626%" x2="100.00064%" y2="49.9994626%" id="linearGradient-23">
            <stop stop-color="#1AA595" offset="0%"></stop>
            <stop stop-color="#0D978C" offset="100%"></stop>
        </linearGradient>
        <radialGradient cx="78.7611536%" cy="58.7282738%" fx="78.7611536%" fy="58.7282738%" r="102.754755%" gradientTransform="translate(0.787612,0.587283),scale(0.740938,1.000000),rotate(-14.951591),translate(-0.787612,-0.587283)" id="radialGradient-24">
            <stop stop-color="#1AB7A0" offset="0%"></stop>
            <stop stop-color="#12CFB5" offset="100%"></stop>
        </radialGradient>
    </defs>
    <g id="页面-1" stroke="none" stroke-width="1" fill="none" fill-rule="evenodd">
        <g id="宣传长图2" transform="translate(-400.000000, -30.000000)">
            <g id="编组" transform="translate(400.000000, 30.000000)">
                <g>
                    <mask id="mask-2" fill="white">
                        <use xlink:href="#path-1"></use>
                    </mask>
                    <g id="Clip-2"></g>
                    <path d="M15.6791561,0.203525581 C6.38899756,1.46386047 1.20123659,7.13536744 0.117226829,17.2196791 L0.117226829,17.2196791 C-0.046295122,18.7425837 -0.0400682927,20.2774605 0.145382927,21.7979163 L0.145382927,21.7979163 C1.2978878,31.2321977 6.24090732,36.7371837 14.9763366,38.3164116 L14.9763366,38.3164116 C16.1567268,38.5297326 17.3503829,38.6372093 18.544039,38.6372093 L18.544039,38.6372093 L18.5481,38.6372093 C19.7493366,38.6372093 20.9505732,38.5283721 22.1377317,38.3101535 L22.1377317,38.3101535 C30.543139,36.7638488 35.3997951,31.5026581 36.7044512,22.5227721 L36.7044512,22.5227721 C36.9935927,20.5318674 36.9838463,18.512393 36.6882073,16.5228488 L36.6882073,16.5228488 C35.2841927,7.08094884 30.1895634,1.66031163 21.4021537,0.263113953 L21.4021537,0.263113953 C20.3901585,0.102306977 19.3695,0.0225837209 18.3483,0.0225837209 L18.3483,0.0225837209 C17.4570512,0.0225837209 16.5655317,0.0832604651 15.6791561,0.203525581 M8.74355122,19.5156 C9.08196585,11.6929256 12.2969049,7.61153023 18.3883683,7.27141395 L18.3883683,7.27141395 C24.3661244,7.61153023 27.4673561,11.6929256 27.6947707,19.5156 L27.6947707,19.5156 C27.4673561,27.3382744 24.3106244,31.3638907 18.219161,31.5897279 L18.219161,31.5897279 C12.1276976,31.2496116 8.96825854,27.2267163 8.74355122,19.5156" id="Fill-1" fill="url(#linearGradient-3)" mask="url(#mask-2)"></path>
                </g>
                <path d="M0.146070738,22.111494 C1.30423448,31.5732064 6.27125244,37.0943579 15.0498452,38.6782233 C17.4309232,39.1077553 19.8661414,39.1088469 22.2461311,38.6719468 C30.6930815,37.1211014 35.5735841,31.8444611 36.8846461,22.8384784 C36.9319847,22.5123724 36.968713,22.1854477 37,21.8579773 C35.8679541,23.4745897 33.4161402,26.5675479 30.0482969,28.5359181 C26.6537916,30.5201161 23.4100082,31.8182635 18.9229058,31.9110468 C18.8312213,31.912957 18.7357279,31.9132299 18.638058,31.912957 C18.5284174,31.9195064 18.4201371,31.9276932 18.3085921,31.9317865 C18.0555753,31.9178691 17.8093601,31.8949461 17.5664096,31.8682027 C13.9365715,31.5890342 8.01951652,29.91375 5.08669878,24.4425377 C1.45985338,17.6767257 2.02873296,10.0499392 2.03254182,10 C1.06454873,12.1528452 0.425749462,14.6588127 0.117776392,17.5195398 C-0.0465484609,19.0471894 -0.0405631186,20.5865734 0.146070738,22.111494" id="Fill-3" fill="url(#radialGradient-4)"></path>
                <g transform="translate(41.000000, 1.000000)">
                    <mask id="mask-6" fill="white">
                        <use xlink:href="#path-5"></use>
                    </mask>
                    <g id="Clip-6"></g>
                    <path d="M1.92915,0.26433 C0.99333,0.26433 0.23436,1.02303 0.23436,1.95912 L0.23436,1.95912 L0.23436,26.30502 L8.67213,17.13069 L8.67213,4.17231 C8.67213,2.01393 6.92253,0.26433 4.76415,0.26433 L4.76415,0.26433 L1.92915,0.26433 Z" id="Fill-5" fill="url(#linearGradient-7)" mask="url(#mask-6)"></path>
                </g>
                <g transform="translate(55.000000, 1.000000)">
                    <mask id="mask-9" fill="white">
                        <use xlink:href="#path-8"></use>
                    </mask>
                    <g id="Clip-8"></g>
                    <path d="M5.692776,15.9646143 L0.264408,21.6239 L9.867276,35.3467857 C10.730052,36.5793429 12.154212,37.3157286 13.675248,37.3157286 L13.675248,37.3157286 L22.112568,37.3157286 L5.725068,15.9407286 L20.905344,0.163942857 L5.692776,15.9646143 Z" id="Fill-7" fill="url(#linearGradient-10)" mask="url(#mask-9)"></path>
                </g>
                <g transform="translate(41.000000, 27.000000)">
                    <mask id="mask-12" fill="white">
                        <use xlink:href="#path-11"></use>
                    </mask>
                    <g id="Clip-10"></g>
                    <polygon id="Fill-9" fill="url(#linearGradient-13)" mask="url(#mask-12)" points="0.236727273 10.2137538 0.236727273 11.1057231 8.75972727 11.1057231 8.75972727 1.06726154 9.61063636 0.124615385"></polygon>
                </g>
                <g transform="translate(41.000000, 1.000000)">
                    <polygon id="Fill-11" fill="#1AB7A0" points="9.75843692 26.6534012 14.6655138 21.5682476 14.6056985 21.4835085"></polygon>
                    <polygon id="Fill-13" fill="url(#linearGradient-14)" points="14.6654308 21.5681934 20.1116769 15.923708 35.3751231 0.163603171 24.6443538 0.163603171 8.89435385 16.9061934 0.240507692 26.1056568 0.240507692 36.5171861 9.75835385 26.6533471"></polygon>
                </g>
                <g transform="translate(80.000000, 1.000000)">
                    <mask id="mask-16" fill="white">
                        <use xlink:href="#path-15"></use>
                    </mask>
                    <g id="Clip-16"></g>
                    <path d="M0.198227586,2.48787692 L0.198227586,23.4947077 C0.198227586,23.4947077 0.575048276,20.6889231 1.69448276,19.1190462 L1.69448276,19.1190462 C2.60224138,17.8468615 3.93066207,17.0504308 7.10768276,16.9814769 L7.10768276,16.9814769 C7.60688276,16.9704 8.44175172,16.9742769 9.48587586,16.9778769 L9.48587586,16.9778769 C10.9033241,16.9825846 12.7067379,16.9872923 14.5787379,16.9554462 L14.5787379,16.9554462 L8.60313103,16.9554462 L8.60313103,6.74418462 L15.8315793,6.74418462 C20.4255103,6.63064615 22.6111241,8.36141538 22.3876138,11.9364923 L22.3876138,11.9364923 C22.4841724,14.8621846 20.8268069,16.5071077 17.4165931,16.8754154 L17.4165931,16.8754154 C18.7302207,16.8211385 19.9992,16.7397231 21.1105655,16.6178769 L21.1105655,16.6178769 C22.6910069,16.4448 25.7424207,14.4022154 25.6832483,10.9755692 L25.6832483,10.9755692 C25.6493586,9.03710769 24.9097034,7.06403077 23.7666,5.85249231 L23.7666,5.85249231 C19.422269,1.24809231 6.91241379,0.261415385 2.10895862,0.0509538462 L2.10895862,0.0509538462 C1.01695862,0.292707692 0.198227586,1.29129231 0.198227586,2.48787692" id="Fill-15" fill="url(#linearGradient-17)" mask="url(#mask-16)"></path>
                </g>
                <g transform="translate(80.000000, 24.000000)">
                    <mask id="mask-19" fill="white">
                        <use xlink:href="#path-18"></use>
                    </mask>
                    <g id="Clip-18"></g>
                    <polygon id="Fill-17" fill="url(#linearGradient-20)" mask="url(#mask-19)" points="0.19899 0.222882353 0.19899 14.3216471 8.63622 14.3216471 8.63622 0.123617647"></polygon>
                </g>
                <g transform="translate(93.000000, 24.000000)">
                    <mask id="mask-22" fill="white">
                        <use xlink:href="#path-21"></use>
                    </mask>
                    <g id="Clip-20"></g>
                    <path d="M0.037526087,0.307588235 L0.538786957,0.298588235 L8.32805217,12.1468235 C9.25908261,13.563 10.8746217,14.4209118 12.6109565,14.4209118 L12.6109565,14.4209118 L20.6081217,14.4209118 L9.61845652,0.0423529412 L0.037526087,0.307588235 Z" id="Fill-19" fill="url(#linearGradient-23)" mask="url(#mask-22)"></path>
                </g>
                <g transform="translate(79.000000, 1.000000)">
                    <polygon id="Fill-21" fill="#1AB7A0" points="12.3684023 22.6364369 14.2033737 22.5835446 9.77338514 22.6677292"></polygon>
                    <path d="M17.1448411,16.2325908 C17.7211154,16.2325908 18.2595383,16.2057292 18.7614811,16.15256 L18.7612069,16.15256 C18.2595383,16.2057292 17.7211154,16.2325908 17.1448411,16.2325908" id="Fill-23" fill="#1AB7A0"></path>
                    <path d="M22.6591269,23.1172062 C28.9430126,21.8488985 32.0287269,18.0412062 31.9162697,11.6941292 C31.5734126,4.31136 26.7734126,0.503667692 17.5162697,0.271052308 L2.67220114,0.271052308 C2.49309257,0.271052308 2.31892114,0.291267692 2.150784,0.327821538 C7.04897829,0.538283077 19.8065554,1.52496 24.2368183,6.12936 C25.4025326,7.34089846 26.1568183,9.31397538 26.191104,11.2524369 C26.2517211,14.6790831 23.1396754,16.7216677 21.5282469,16.8947446 C20.394624,17.0165908 19.1008183,17.0980062 17.7614811,17.15256 C17.2595383,17.2057292 16.7211154,17.2325908 16.1448411,17.2325908 L14.8672183,17.2325908 C11.5524754,17.2874215 8.44893257,17.2325908 7.24810971,17.2583446 C4.00824686,17.3275754 2.653824,18.1237292 1.72810971,19.3959138 C0.586258286,20.9657908 0.201984,23.7715754 0.201984,23.7715754 L8.77341257,23.6677292 L13.2034011,23.5835446 L22.7970926,23.3057908 L22.6591269,23.1172062 Z" id="Fill-25" fill="url(#radialGradient-24)"></path>
                </g>
            </g>
        </g>
    </g>
</svg>