<?xml version="1.0" encoding="UTF-8"?>
<svg width="125px" height="43px" viewBox="0 0 125 43" version="1.1" xmlns="http://www.w3.org/2000/svg" xmlns:xlink="http://www.w3.org/1999/xlink">
    <!-- Generator: Sketch 60 (88103) - https://sketch.com -->
    <title>编组</title>
    <desc>Created with Sketch.</desc>
    <defs>
        <path d="M17.3742,0.2244 C7.0797,1.614 1.3311,7.8672 0.1299,18.9858 L0.1299,18.9858 C-0.0513,20.6649 -0.0444,22.3572 0.1611,24.0336 L0.1611,24.0336 C1.4382,34.4355 6.9156,40.5051 16.5954,42.2463 L16.5954,42.2463 C17.9034,42.4815 19.2261,42.6 20.5488,42.6 L20.5488,42.6 L20.5533,42.6 C21.8844,42.6 23.2155,42.48 24.531,42.2394 L24.531,42.2394 C33.8451,40.5345 39.2268,34.7337 40.6725,24.8328 L40.6725,24.8328 C40.9929,22.6377 40.9821,20.4111 40.6545,18.2175 L40.6545,18.2175 C39.0987,7.8072 33.4533,1.8306 23.7159,0.2901 L23.7159,0.2901 C22.5945,0.1128 21.4635,0.0249 20.3319,0.0249 L20.3319,0.0249 C19.3443,0.0249 18.3564,0.0918 17.3742,0.2244 M9.6888,21.5172 C10.0638,12.8922 13.6263,8.3922 20.3763,8.0172 L20.3763,8.0172 C27.0003,8.3922 30.4368,12.8922 30.6888,21.5172 L30.6888,21.5172 C30.4368,30.1422 26.9388,34.5807 20.1888,34.8297 L20.1888,34.8297 C13.4388,34.4547 9.9378,30.0192 9.6888,21.5172" id="path-1"></path>
        <linearGradient x1="50.0000052%" y1="-1.59952648e-05%" x2="50.0000052%" y2="100%" id="linearGradient-3">
            <stop stop-color="#1AA595" offset="0%"></stop>
            <stop stop-color="#0D978C" offset="100%"></stop>
        </linearGradient>
        <radialGradient cx="44.0273822%" cy="85.7114545%" fx="44.0273822%" fy="85.7114545%" r="101.840236%" gradientTransform="translate(0.440274,0.857115),scale(0.781397,1.000000),rotate(-150.321298),translate(-0.440274,-0.857115)" id="radialGradient-4">
            <stop stop-color="#1AB7A0" offset="0%"></stop>
            <stop stop-color="#12CAB1" offset="100%"></stop>
        </radialGradient>
        <path d="M2.1435,0.2937 C1.1037,0.2937 0.2604,1.1367 0.2604,2.1768 L0.2604,2.1768 L0.2604,29.2278 L9.6357,19.0341 L9.6357,4.6359 C9.6357,2.2377 7.6917,0.2937 5.2935,0.2937 L5.2935,0.2937 L2.1435,0.2937 Z" id="path-5"></path>
        <linearGradient x1="0.000817893827%" y1="50.0001339%" x2="419.988941%" y2="50.0001339%" id="linearGradient-7">
            <stop stop-color="#1AA595" offset="0%"></stop>
            <stop stop-color="#0D978C" offset="100%"></stop>
        </linearGradient>
        <path d="M6.1878,17.6451 L0.2874,23.9001 L10.7253,39.0675 C11.6631,40.4298 13.2111,41.2437 14.8644,41.2437 L14.8644,41.2437 L24.0354,41.2437 L6.2229,17.6187 L22.7232,0.1812 L6.1878,17.6451 Z" id="path-8"></path>
        <linearGradient x1="-65.8031324%" y1="49.999975%" x2="100.000921%" y2="49.999975%" id="linearGradient-10">
            <stop stop-color="#1AA595" offset="0%"></stop>
            <stop stop-color="#0D978C" offset="100%"></stop>
        </linearGradient>
        <polygon id="path-11" points="0.2604 11.0649 0.2604 12.0312 9.6357 12.0312 9.6357 1.1562 10.5717 0.135"></polygon>
        <linearGradient x1="0.00074365017%" y1="49.9996981%" x2="381.864781%" y2="49.9996981%" id="linearGradient-13">
            <stop stop-color="#1AA595" offset="0%"></stop>
            <stop stop-color="#0D978C" offset="100%"></stop>
        </linearGradient>
        <linearGradient x1="68.8479634%" y1="13.9316018%" x2="9.37673592%" y2="84.7903642%" id="linearGradient-14">
            <stop stop-color="#1ACAB1" offset="0%"></stop>
            <stop stop-color="#1AB7A0" offset="100%"></stop>
        </linearGradient>
        <path d="M0.2211,2.6952 L0.2211,25.4526 C0.2211,25.4526 0.6414,22.413 1.89,20.7123 L1.89,20.7123 C2.9025,19.3341 4.3842,18.4713 7.9278,18.3966 L7.9278,18.3966 C8.4846,18.3846 9.4158,18.3888 10.5804,18.3927 L10.5804,18.3927 C12.1614,18.3978 14.1729,18.4029 16.2609,18.3684 L16.2609,18.3684 L9.5958,18.3684 L9.5958,7.3062 L17.6583,7.3062 C22.7823,7.1832 25.2201,9.0582 24.9708,12.9312 L24.9708,12.9312 C25.0785,16.1007 23.2299,17.8827 19.4262,18.2817 L19.4262,18.2817 C20.8914,18.2229 22.3068,18.1347 23.5464,18.0027 L23.5464,18.0027 C25.3092,17.8152 28.7127,15.6024 28.6467,11.8902 L28.6467,11.8902 C28.6089,9.7902 27.7839,7.6527 26.5089,6.3402 L26.5089,6.3402 C21.6633,1.3521 7.71,0.2832 2.3523,0.0552 L2.3523,0.0552 C1.1343,0.3171 0.2211,1.3989 0.2211,2.6952" id="path-15"></path>
        <linearGradient x1="-0.00054804407%" y1="49.9998474%" x2="129.280019%" y2="49.9998474%" id="linearGradient-17">
            <stop stop-color="#1AA595" offset="0%"></stop>
            <stop stop-color="#0D978C" offset="100%"></stop>
        </linearGradient>
        <polygon id="path-18" points="0.2211 0.2526 0.2211 16.2312 9.5958 16.2312 9.5958 0.1401"></polygon>
        <linearGradient x1="-0.00166181318%" y1="50.0002588%" x2="392.010883%" y2="50.0002588%" id="linearGradient-20">
            <stop stop-color="#1AA595" offset="0%"></stop>
            <stop stop-color="#0D978C" offset="100%"></stop>
        </linearGradient>
        <path d="M0.0411,0.3486 L0.5901,0.3384 L9.1212,13.7664 C10.1409,15.3714 11.9103,16.3437 13.812,16.3437 L13.812,16.3437 L22.5708,16.3437 L10.5345,0.048 L0.0411,0.3486 Z" id="path-21"></path>
        <linearGradient x1="-63.1173775%" y1="49.9994626%" x2="100.00064%" y2="49.9994626%" id="linearGradient-23">
            <stop stop-color="#1AA595" offset="0%"></stop>
            <stop stop-color="#0D978C" offset="100%"></stop>
        </linearGradient>
        <radialGradient cx="78.7611536%" cy="58.7282738%" fx="78.7611536%" fy="58.7282738%" r="103.677305%" gradientTransform="translate(0.787612,0.587283),scale(0.733882,1.000000),rotate(-14.815486),translate(-0.787612,-0.587283)" id="radialGradient-24">
            <stop stop-color="#1AB7A0" offset="0%"></stop>
            <stop stop-color="#12CFB5" offset="100%"></stop>
        </radialGradient>
    </defs>
    <g id="页面-1" stroke="none" stroke-width="1" fill="none" fill-rule="evenodd">
        <g id="保密设置1" transform="translate(-57.000000, -56.000000)">
            <g id="编组-2">
                <g id="编组" transform="translate(57.000000, 56.000000)">
                    <g transform="translate(0.000000, 0.275100)">
                        <mask id="mask-2" fill="white">
                            <use xlink:href="#path-1"></use>
                        </mask>
                        <g id="Clip-2"></g>
                        <path d="M17.3742,0.2244 C7.0797,1.614 1.3311,7.8672 0.1299,18.9858 L0.1299,18.9858 C-0.0513,20.6649 -0.0444,22.3572 0.1611,24.0336 L0.1611,24.0336 C1.4382,34.4355 6.9156,40.5051 16.5954,42.2463 L16.5954,42.2463 C17.9034,42.4815 19.2261,42.6 20.5488,42.6 L20.5488,42.6 L20.5533,42.6 C21.8844,42.6 23.2155,42.48 24.531,42.2394 L24.531,42.2394 C33.8451,40.5345 39.2268,34.7337 40.6725,24.8328 L40.6725,24.8328 C40.9929,22.6377 40.9821,20.4111 40.6545,18.2175 L40.6545,18.2175 C39.0987,7.8072 33.4533,1.8306 23.7159,0.2901 L23.7159,0.2901 C22.5945,0.1128 21.4635,0.0249 20.3319,0.0249 L20.3319,0.0249 C19.3443,0.0249 18.3564,0.0918 17.3742,0.2244 M9.6888,21.5172 C10.0638,12.8922 13.6263,8.3922 20.3763,8.0172 L20.3763,8.0172 C27.0003,8.3922 30.4368,12.8922 30.6888,21.5172 L30.6888,21.5172 C30.4368,30.1422 26.9388,34.5807 20.1888,34.8297 L20.1888,34.8297 C13.4388,34.4547 9.9378,30.0192 9.6888,21.5172" id="Fill-1" fill="url(#linearGradient-3)" mask="url(#mask-2)"></path>
                    </g>
                    <path d="M0.16113,24.30888 C1.43823,34.71048 6.91533,40.78008 16.59543,42.52128 C19.22103,42.99348 21.90633,42.99468 24.53073,42.51438 C33.84513,40.80948 39.22683,35.00868 40.67253,25.10808 C40.72473,24.74958 40.76523,24.39018 40.79973,24.03018 C39.55143,25.80738 36.84783,29.20758 33.13413,31.37148 C29.39103,33.55278 25.81413,34.97988 20.86623,35.08188 C20.76513,35.08398 20.65983,35.08428 20.55213,35.08398 C20.43123,35.09118 20.31183,35.10018 20.18883,35.10468 C19.90983,35.08938 19.63833,35.06418 19.37043,35.03478 C15.36783,34.72788 8.84313,32.88618 5.60913,26.87148 C1.60983,19.43358 2.23713,11.04918 2.24133,10.99428 C1.17393,13.36098 0.46953,16.11588 0.12993,19.26078 C-0.05127,20.94018 -0.04467,22.63248 0.16113,24.30888" id="Fill-3" fill="url(#radialGradient-4)"></path>
                    <g transform="translate(45.000000, 0.575100)">
                        <mask id="mask-6" fill="white">
                            <use xlink:href="#path-5"></use>
                        </mask>
                        <g id="Clip-6"></g>
                        <path d="M2.1435,0.2937 C1.1037,0.2937 0.2604,1.1367 0.2604,2.1768 L0.2604,2.1768 L0.2604,29.2278 L9.6357,19.0341 L9.6357,4.6359 C9.6357,2.2377 7.6917,0.2937 5.2935,0.2937 L5.2935,0.2937 L2.1435,0.2937 Z" id="Fill-5" fill="url(#linearGradient-7)" mask="url(#mask-6)"></path>
                    </g>
                    <g transform="translate(60.600000, 0.875100)">
                        <mask id="mask-9" fill="white">
                            <use xlink:href="#path-8"></use>
                        </mask>
                        <g id="Clip-8"></g>
                        <path d="M6.1878,17.6451 L0.2874,23.9001 L10.7253,39.0675 C11.6631,40.4298 13.2111,41.2437 14.8644,41.2437 L14.8644,41.2437 L24.0354,41.2437 L6.2229,17.6187 L22.7232,0.1812 L6.1878,17.6451 Z" id="Fill-7" fill="url(#linearGradient-10)" mask="url(#mask-9)"></path>
                    </g>
                    <g transform="translate(45.000000, 30.275100)">
                        <mask id="mask-12" fill="white">
                            <use xlink:href="#path-11"></use>
                        </mask>
                        <g id="Clip-10"></g>
                        <polygon id="Fill-9" fill="url(#linearGradient-13)" mask="url(#mask-12)" points="0.2604 11.0649 0.2604 12.0312 9.6357 12.0312 9.6357 1.1562 10.5717 0.135"></polygon>
                    </g>
                    <g transform="translate(45.000000, 0.875100)">
                        <polygon id="Fill-11" fill="#1AB7A0" points="10.57164 29.53485 15.88764 23.89995 15.82284 23.80605"></polygon>
                        <polygon id="Fill-13" fill="url(#linearGradient-14)" points="15.88755 23.89989 21.78765 17.64519 38.32305 0.18129 26.69805 0.18129 9.63555 18.73389 0.26055 28.92789 0.26055 40.46499 10.57155 29.53479"></polygon>
                    </g>
                    <g transform="translate(87.900000, 0.875100)">
                        <mask id="mask-16" fill="white">
                            <use xlink:href="#path-15"></use>
                        </mask>
                        <g id="Clip-16"></g>
                        <path d="M0.2211,2.6952 L0.2211,25.4526 C0.2211,25.4526 0.6414,22.413 1.89,20.7123 L1.89,20.7123 C2.9025,19.3341 4.3842,18.4713 7.9278,18.3966 L7.9278,18.3966 C8.4846,18.3846 9.4158,18.3888 10.5804,18.3927 L10.5804,18.3927 C12.1614,18.3978 14.1729,18.4029 16.2609,18.3684 L16.2609,18.3684 L9.5958,18.3684 L9.5958,7.3062 L17.6583,7.3062 C22.7823,7.1832 25.2201,9.0582 24.9708,12.9312 L24.9708,12.9312 C25.0785,16.1007 23.2299,17.8827 19.4262,18.2817 L19.4262,18.2817 C20.8914,18.2229 22.3068,18.1347 23.5464,18.0027 L23.5464,18.0027 C25.3092,17.8152 28.7127,15.6024 28.6467,11.8902 L28.6467,11.8902 C28.6089,9.7902 27.7839,7.6527 26.5089,6.3402 L26.5089,6.3402 C21.6633,1.3521 7.71,0.2832 2.3523,0.0552 L2.3523,0.0552 C1.1343,0.3171 0.2211,1.3989 0.2211,2.6952" id="Fill-15" fill="url(#linearGradient-17)" mask="url(#mask-16)"></path>
                    </g>
                    <g transform="translate(87.900000, 26.075100)">
                        <mask id="mask-19" fill="white">
                            <use xlink:href="#path-18"></use>
                        </mask>
                        <g id="Clip-18"></g>
                        <polygon id="Fill-17" fill="url(#linearGradient-20)" mask="url(#mask-19)" points="0.2211 0.2526 0.2211 16.2312 9.5958 16.2312 9.5958 0.1401"></polygon>
                    </g>
                    <g transform="translate(102.300000, 25.775100)">
                        <mask id="mask-22" fill="white">
                            <use xlink:href="#path-21"></use>
                        </mask>
                        <g id="Clip-20"></g>
                        <path d="M0.0411,0.3486 L0.5901,0.3384 L9.1212,13.7664 C10.1409,15.3714 11.9103,16.3437 13.812,16.3437 L13.812,16.3437 L22.5708,16.3437 L10.5345,0.048 L0.0411,0.3486 Z" id="Fill-19" fill="url(#linearGradient-23)" mask="url(#mask-22)"></path>
                    </g>
                    <g transform="translate(87.900000, 0.575100)">
                        <polygon id="Fill-21" fill="#1AB7A0" points="12.43419 25.60614 14.44119 25.54884 9.59589 25.64004"></polygon>
                        <path d="M17.65842,18.66864 C18.28872,18.66864 18.87762,18.63954 19.42662,18.58194 L19.42632,18.58194 C18.87762,18.63954 18.28872,18.66864 17.65842,18.66864" id="Fill-23" fill="#1AB7A0"></path>
                        <path d="M24.78342,25.04364 C31.65642,23.66964 35.03142,19.54464 34.90842,12.66864 C34.53342,4.67064 29.28342,0.54564 19.15842,0.29364 L2.92272,0.29364 C2.72682,0.29364 2.53632,0.31554 2.35242,0.35514 C7.70982,0.58314 21.66342,1.65204 26.50902,6.64014 C27.78402,7.95264 28.60902,10.09014 28.64652,12.19014 C28.71282,15.90234 25.30902,18.11514 23.54652,18.30264 C22.30662,18.43464 20.89152,18.52284 19.42662,18.58194 C18.87762,18.63954 18.28872,18.66864 17.65842,18.66864 L16.26102,18.66864 C12.63552,18.72804 9.24102,18.66864 7.92762,18.69654 C4.38402,18.77154 2.90262,19.63404 1.89012,21.01224 C0.64122,22.71294 0.22092,25.75254 0.22092,25.75254 L9.59592,25.64004 L14.44122,25.54884 L24.93432,25.24794 L24.78342,25.04364 Z" id="Fill-25" fill="url(#radialGradient-24)"></path>
                    </g>
                </g>
            </g>
        </g>
    </g>
</svg>