<?xml version="1.0" standalone="no"?><!DOCTYPE svg PUBLIC "-//W3C//DTD SVG 1.1//EN" "http://www.w3.org/Graphics/SVG/1.1/DTD/svg11.dtd"><svg class="icon" width="200px" height="200.00px" viewBox="0 0 1024 1024" version="1.1" xmlns="http://www.w3.org/2000/svg"><path d="M511.780571 0a511.195429 511.195429 0 0 1 472.283429 315.904 512 512 0 0 1-110.811429 557.641143 510.829714 510.829714 0 0 1-557.056 110.884571A511.707429 511.707429 0 0 1 0.585143 511.707429 511.488 511.488 0 0 1 511.853714 0zM404.772571 711.68a47.616 47.616 0 0 0 0 67.072 47.542857 47.542857 0 0 0 67.145143-0.219429l231.131429-232.082285a47.616 47.616 0 0 0-1.389714-65.462857L466.944 245.394286a47.542857 47.542857 0 1 0-66.998857 67.218285L601.234286 511.707429 404.772571 711.606857z" fill="#1AA696" /></svg>