<?xml version="1.0" encoding="UTF-8"?>
<svg width="101px" height="101px" viewBox="0 0 101 101" version="1.1" xmlns="http://www.w3.org/2000/svg" xmlns:xlink="http://www.w3.org/1999/xlink">
    <!-- Generator: Sketch 60 (88103) - https://sketch.com -->
    <title>编组 32</title>
    <desc>Created with Sketch.</desc>
    <defs>
        <circle id="path-1" cx="50.2546133" cy="50.1457707" r="50"></circle>
    </defs>
    <g id="页面-1" stroke="none" stroke-width="1" fill="none" fill-rule="evenodd">
        <g id="宣传长图2" transform="translate(-1063.000000, -4421.000000)">
            <g id="编组-32" transform="translate(1063.000000, 4421.000000)">
                <g id="路径-35">
                    <mask id="mask-2" fill="white">
                        <use xlink:href="#path-1"></use>
                    </mask>
                    <use id="蒙版" fill="#2A9CF5" xlink:href="#path-1"></use>
                    <polygon fill="#1989E1" mask="url(#mask-2)" points="45 64.1848332 45 73.1457707 67.5895742 97.6233098 98.0260977 88.6233098 107.890844 56.7863957 74.7464567 28 45.619477 60.2697707"></polygon>
                </g>
                <g id="emizhifeiji" transform="translate(23.000000, 27.000000)" fill="#FFFFFF" fill-rule="nonzero">
                    <path d="M26.8252583,37.684025 L23.0256555,36.5746531 C22.4955054,36.4198649 21.9402533,36.7241559 21.7854651,37.2543059 C21.7588814,37.3453553 21.7453867,37.4397238 21.7453867,37.5345747 L21.7453867,45.4533074 C21.7453867,45.7294497 21.9692443,45.9533074 22.2453867,45.9533074 C22.4059655,45.9533074 22.556773,45.8761833 22.6507707,45.7459912 L27.3557575,39.2293143 C27.6790471,38.7815395 27.578132,38.1564683 27.1303573,37.8331787 C27.0379054,37.7664292 26.9347181,37.715984 26.8252583,37.684025 Z M17.2949211,31.6280655 L37.9803684,13.8279424 C38.0640939,13.7558953 38.1903725,13.7653626 38.2624195,13.8490882 C38.3262534,13.9232692 38.3270306,14.032748 38.2642564,14.1078279 L22.3648637,33.124 L22.3648637,33.124 L39.9143631,38.6182067 C40.9684816,38.9482187 42.0905411,38.3612144 42.4205531,37.3070959 C42.4309371,37.2739274 42.4404548,37.2404938 42.4490964,37.2068293 L51.4601991,2.10286688 C51.5975173,1.5679256 51.27518,1.02295167 50.7402387,0.885633526 C50.5093938,0.826376174 50.2649748,0.851513675 50.0510233,0.956516537 L1.26690296,24.8987307 C0.771109287,25.1420557 0.566443025,25.7412299 0.809768071,26.2370235 C0.93139933,26.4848567 1.1500754,26.6713808 1.41398897,26.7524058 L17.2949211,31.6280655 L17.2949211,31.6280655 Z" id="形状"></path>
                </g>
            </g>
        </g>
    </g>
</svg>